<svg xmlns="http://www.w3.org/2000/svg" viewBox="0 0 91.35 91.35"><defs><style>.cls-1{fill:#fff;}</style></defs><g id="Layer_2" data-name="Layer 2"><g id="Object"><path class="cls-1" d="M45.67,0A45.68,45.68,0,1,0,91.35,45.67,45.72,45.72,0,0,0,45.67,0ZM68.51,71.44C63.2,79.85,55.63,85.58,47.14,87.6V64.88A42.53,42.53,0,0,1,68.51,71.44Zm-21.37-9.5V47.14h28.6A48.93,48.93,0,0,1,70,68.91,45.5,45.5,0,0,0,47.14,61.94ZM70.92,73.09a44.74,44.74,0,0,1,4.2,3.52A42.67,42.67,0,0,1,56.58,87,40.82,40.82,0,0,0,70.92,73.09ZM71,18.21A40.6,40.6,0,0,0,56.76,4.4,42.71,42.71,0,0,1,75.11,14.74,43.72,43.72,0,0,1,71,18.21Zm4.75,26H47.14V29.41a45.47,45.47,0,0,0,22.91-7A48.94,48.94,0,0,1,75.74,44.21ZM47.14,26.47V3.76c8.58,2,16.17,7.74,21.43,16.1A42.41,42.41,0,0,1,47.14,26.47ZM88.37,47.14a42.61,42.61,0,0,1-11.2,27.38,45.62,45.62,0,0,0-4.74-4,51.64,51.64,0,0,0,6.24-23.42Zm0-2.93h-9.7a51.86,51.86,0,0,0-6.18-23.46,48.33,48.33,0,0,0,4.68-3.92A42.59,42.59,0,0,1,88.37,44.21ZM22.74,19.84C28,11.43,35.62,5.72,44.21,3.72V26.47A42.51,42.51,0,0,1,22.74,19.84Zm21.47,9.57v14.8H15.6a49.24,49.24,0,0,1,5.67-21.83A45.5,45.5,0,0,0,44.21,29.41ZM20.33,18.19a47.11,47.11,0,0,1-4.1-3.45A42.69,42.69,0,0,1,34.37,4.47,40.42,40.42,0,0,0,20.33,18.19ZM3,44.21A42.65,42.65,0,0,1,14.18,16.83a47.88,47.88,0,0,0,4.66,3.9,51.94,51.94,0,0,0-6.17,23.48ZM20.4,73.11A40.87,40.87,0,0,0,34.56,86.93,42.66,42.66,0,0,1,16.23,76.61,43.16,43.16,0,0,1,20.4,73.11Zm-4.8-26H44.21v14.8a45.4,45.4,0,0,0-22.89,7A49.13,49.13,0,0,1,15.6,47.14ZM44.21,64.88V87.63c-8.51-2-16.09-7.72-21.4-16.17A42.53,42.53,0,0,1,44.21,64.88Zm-30,9.64A42.67,42.67,0,0,1,3,47.14h9.7a52,52,0,0,0,6.22,23.44A46.36,46.36,0,0,0,14.18,74.52Z"/></g></g></svg>